<mxfile host="app.diagrams.net" agent="Mozilla/5.0 (Windows NT 10.0; Win64; x64) AppleWebKit/537.36 (KHTML, like Gecko) Chrome/131.0.0.0 Safari/537.36" version="25.0.3">
  <diagram name="第 1 页" id="g5XzyueoRsFDEqBVVmY9">
    <mxGraphModel dx="1930" dy="1743" grid="1" gridSize="10" guides="1" tooltips="1" connect="1" arrows="1" fold="1" page="1" pageScale="1" pageWidth="827" pageHeight="1169" math="0" shadow="0">
      <root>
        <mxCell id="0" />
        <mxCell id="1" parent="0" />
        <mxCell id="OlbgllyM8HP3dYGSSMSe-6" value="" style="rounded=1;whiteSpace=wrap;html=1;fillColor=none;dashed=1;dashPattern=8 8;" vertex="1" parent="1">
          <mxGeometry x="580" y="133" width="540" height="240" as="geometry" />
        </mxCell>
        <mxCell id="OlbgllyM8HP3dYGSSMSe-3" value="动态库、共享内存&lt;div&gt;&lt;br&gt;&lt;div&gt;栈&lt;/div&gt;&lt;div&gt;堆&lt;/div&gt;&lt;div&gt;数据段&lt;/div&gt;&lt;div&gt;代码段&lt;/div&gt;&lt;/div&gt;" style="rounded=0;whiteSpace=wrap;html=1;" vertex="1" parent="1">
          <mxGeometry x="600" y="153" width="120" height="130" as="geometry" />
        </mxCell>
        <mxCell id="OlbgllyM8HP3dYGSSMSe-4" value="内核空间" style="rounded=0;whiteSpace=wrap;html=1;" vertex="1" parent="1">
          <mxGeometry x="600" y="283" width="120" height="60" as="geometry" />
        </mxCell>
        <mxCell id="OlbgllyM8HP3dYGSSMSe-7" value="进程1虚拟地址空间" style="text;html=1;align=center;verticalAlign=middle;whiteSpace=wrap;rounded=0;" vertex="1" parent="1">
          <mxGeometry x="659" y="100" width="112" height="33" as="geometry" />
        </mxCell>
        <mxCell id="OlbgllyM8HP3dYGSSMSe-8" value="" style="shape=curlyBracket;whiteSpace=wrap;html=1;rounded=1;flipH=1;labelPosition=right;verticalLabelPosition=middle;align=left;verticalAlign=middle;" vertex="1" parent="1">
          <mxGeometry x="830" y="153" width="20" height="130" as="geometry" />
        </mxCell>
        <mxCell id="OlbgllyM8HP3dYGSSMSe-9" value="" style="shape=curlyBracket;whiteSpace=wrap;html=1;rounded=1;flipH=1;labelPosition=right;verticalLabelPosition=middle;align=left;verticalAlign=middle;" vertex="1" parent="1">
          <mxGeometry x="830" y="283" width="20" height="60" as="geometry" />
        </mxCell>
        <mxCell id="OlbgllyM8HP3dYGSSMSe-10" value="3GB" style="text;html=1;align=center;verticalAlign=middle;whiteSpace=wrap;rounded=0;" vertex="1" parent="1">
          <mxGeometry x="850" y="203" width="60" height="30" as="geometry" />
        </mxCell>
        <mxCell id="OlbgllyM8HP3dYGSSMSe-11" value="1GB" style="text;html=1;align=center;verticalAlign=middle;whiteSpace=wrap;rounded=0;" vertex="1" parent="1">
          <mxGeometry x="850" y="298" width="60" height="25" as="geometry" />
        </mxCell>
        <mxCell id="OlbgllyM8HP3dYGSSMSe-12" value="" style="rounded=0;whiteSpace=wrap;html=1;" vertex="1" parent="1">
          <mxGeometry x="80" y="153" width="120" height="620" as="geometry" />
        </mxCell>
        <mxCell id="OlbgllyM8HP3dYGSSMSe-13" value="0x00000000" style="text;html=1;align=center;verticalAlign=middle;whiteSpace=wrap;rounded=0;" vertex="1" parent="1">
          <mxGeometry x="730" y="153" width="60" height="30" as="geometry" />
        </mxCell>
        <mxCell id="OlbgllyM8HP3dYGSSMSe-14" value="&lt;font style=&quot;font-size: 24px;&quot;&gt;32位系统&lt;/font&gt;" style="text;html=1;align=center;verticalAlign=middle;whiteSpace=wrap;rounded=0;" vertex="1" parent="1">
          <mxGeometry x="350" y="-30" width="140" height="30" as="geometry" />
        </mxCell>
        <mxCell id="OlbgllyM8HP3dYGSSMSe-15" value="0xBFFFFFFF" style="text;html=1;align=center;verticalAlign=middle;whiteSpace=wrap;rounded=0;" vertex="1" parent="1">
          <mxGeometry x="730" y="253" width="60" height="30" as="geometry" />
        </mxCell>
        <mxCell id="OlbgllyM8HP3dYGSSMSe-16" value="0xCFFFFFFF" style="text;html=1;align=center;verticalAlign=middle;whiteSpace=wrap;rounded=0;" vertex="1" parent="1">
          <mxGeometry x="730" y="283" width="60" height="30" as="geometry" />
        </mxCell>
        <mxCell id="OlbgllyM8HP3dYGSSMSe-17" value="0xFFFFFFFF" style="text;html=1;align=center;verticalAlign=middle;whiteSpace=wrap;rounded=0;" vertex="1" parent="1">
          <mxGeometry x="730" y="313" width="60" height="30" as="geometry" />
        </mxCell>
        <mxCell id="OlbgllyM8HP3dYGSSMSe-18" value="" style="rounded=1;whiteSpace=wrap;html=1;fillColor=none;dashed=1;dashPattern=8 8;" vertex="1" parent="1">
          <mxGeometry x="580" y="436" width="540" height="240" as="geometry" />
        </mxCell>
        <mxCell id="OlbgllyM8HP3dYGSSMSe-19" value="动态库、共享内存&lt;div&gt;&lt;br&gt;&lt;div&gt;栈&lt;/div&gt;&lt;div&gt;堆&lt;/div&gt;&lt;div&gt;数据段&lt;/div&gt;&lt;div&gt;代码段&lt;/div&gt;&lt;/div&gt;" style="rounded=0;whiteSpace=wrap;html=1;" vertex="1" parent="1">
          <mxGeometry x="600" y="456" width="120" height="130" as="geometry" />
        </mxCell>
        <mxCell id="OlbgllyM8HP3dYGSSMSe-20" value="内核空间" style="rounded=0;whiteSpace=wrap;html=1;" vertex="1" parent="1">
          <mxGeometry x="600" y="586" width="120" height="60" as="geometry" />
        </mxCell>
        <mxCell id="OlbgllyM8HP3dYGSSMSe-21" value="进程2虚拟地址空间" style="text;html=1;align=center;verticalAlign=middle;whiteSpace=wrap;rounded=0;" vertex="1" parent="1">
          <mxGeometry x="659" y="403" width="112" height="33" as="geometry" />
        </mxCell>
        <mxCell id="OlbgllyM8HP3dYGSSMSe-22" value="" style="shape=curlyBracket;whiteSpace=wrap;html=1;rounded=1;flipH=1;labelPosition=right;verticalLabelPosition=middle;align=left;verticalAlign=middle;" vertex="1" parent="1">
          <mxGeometry x="830" y="456" width="20" height="130" as="geometry" />
        </mxCell>
        <mxCell id="OlbgllyM8HP3dYGSSMSe-23" value="" style="shape=curlyBracket;whiteSpace=wrap;html=1;rounded=1;flipH=1;labelPosition=right;verticalLabelPosition=middle;align=left;verticalAlign=middle;" vertex="1" parent="1">
          <mxGeometry x="830" y="586" width="20" height="60" as="geometry" />
        </mxCell>
        <mxCell id="OlbgllyM8HP3dYGSSMSe-24" value="3GB" style="text;html=1;align=center;verticalAlign=middle;whiteSpace=wrap;rounded=0;" vertex="1" parent="1">
          <mxGeometry x="850" y="506" width="60" height="30" as="geometry" />
        </mxCell>
        <mxCell id="OlbgllyM8HP3dYGSSMSe-25" value="1GB" style="text;html=1;align=center;verticalAlign=middle;whiteSpace=wrap;rounded=0;" vertex="1" parent="1">
          <mxGeometry x="850" y="601" width="60" height="25" as="geometry" />
        </mxCell>
        <mxCell id="OlbgllyM8HP3dYGSSMSe-26" value="0x00000000" style="text;html=1;align=center;verticalAlign=middle;whiteSpace=wrap;rounded=0;" vertex="1" parent="1">
          <mxGeometry x="730" y="456" width="60" height="30" as="geometry" />
        </mxCell>
        <mxCell id="OlbgllyM8HP3dYGSSMSe-27" value="0xBFFFFFFF" style="text;html=1;align=center;verticalAlign=middle;whiteSpace=wrap;rounded=0;" vertex="1" parent="1">
          <mxGeometry x="730" y="556" width="60" height="30" as="geometry" />
        </mxCell>
        <mxCell id="OlbgllyM8HP3dYGSSMSe-28" value="0xCFFFFFFF" style="text;html=1;align=center;verticalAlign=middle;whiteSpace=wrap;rounded=0;" vertex="1" parent="1">
          <mxGeometry x="730" y="586" width="60" height="30" as="geometry" />
        </mxCell>
        <mxCell id="OlbgllyM8HP3dYGSSMSe-29" value="0xFFFFFFFF" style="text;html=1;align=center;verticalAlign=middle;whiteSpace=wrap;rounded=0;" vertex="1" parent="1">
          <mxGeometry x="730" y="616" width="60" height="30" as="geometry" />
        </mxCell>
        <mxCell id="OlbgllyM8HP3dYGSSMSe-30" value="用户空间" style="text;html=1;align=center;verticalAlign=middle;whiteSpace=wrap;rounded=0;" vertex="1" parent="1">
          <mxGeometry x="630" y="153" width="60" height="30" as="geometry" />
        </mxCell>
        <mxCell id="OlbgllyM8HP3dYGSSMSe-31" value="用户空间" style="text;html=1;align=center;verticalAlign=middle;whiteSpace=wrap;rounded=0;" vertex="1" parent="1">
          <mxGeometry x="630" y="456" width="60" height="30" as="geometry" />
        </mxCell>
        <mxCell id="OlbgllyM8HP3dYGSSMSe-32" value="" style="rounded=0;whiteSpace=wrap;html=1;" vertex="1" parent="1">
          <mxGeometry x="80" y="153" width="120" height="240" as="geometry" />
        </mxCell>
        <mxCell id="OlbgllyM8HP3dYGSSMSe-33" value="" style="shape=curlyBracket;whiteSpace=wrap;html=1;rounded=1;labelPosition=left;verticalLabelPosition=middle;align=right;verticalAlign=middle;" vertex="1" parent="1">
          <mxGeometry x="50" y="153" width="20" height="240" as="geometry" />
        </mxCell>
        <mxCell id="OlbgllyM8HP3dYGSSMSe-35" value="共享区域" style="text;html=1;align=center;verticalAlign=middle;whiteSpace=wrap;rounded=0;" vertex="1" parent="1">
          <mxGeometry x="-20" y="288" width="60" height="30" as="geometry" />
        </mxCell>
        <mxCell id="OlbgllyM8HP3dYGSSMSe-36" value="内核代码" style="rounded=0;whiteSpace=wrap;html=1;" vertex="1" parent="1">
          <mxGeometry x="80" y="153" width="120" height="60" as="geometry" />
        </mxCell>
        <mxCell id="OlbgllyM8HP3dYGSSMSe-37" value="共享内存" style="rounded=0;whiteSpace=wrap;html=1;fontColor=#FF3333;" vertex="1" parent="1">
          <mxGeometry x="80" y="213" width="120" height="60" as="geometry" />
        </mxCell>
        <mxCell id="OlbgllyM8HP3dYGSSMSe-38" value="动态库" style="rounded=0;whiteSpace=wrap;html=1;fontColor=#FF3333;" vertex="1" parent="1">
          <mxGeometry x="80" y="273" width="120" height="60" as="geometry" />
        </mxCell>
        <mxCell id="OlbgllyM8HP3dYGSSMSe-39" value="..." style="rounded=0;whiteSpace=wrap;html=1;" vertex="1" parent="1">
          <mxGeometry x="80" y="333" width="120" height="60" as="geometry" />
        </mxCell>
        <mxCell id="OlbgllyM8HP3dYGSSMSe-40" value="" style="endArrow=classic;html=1;rounded=0;exitX=0;exitY=0.5;exitDx=0;exitDy=0;" edge="1" parent="1" source="OlbgllyM8HP3dYGSSMSe-4">
          <mxGeometry width="50" height="50" relative="1" as="geometry">
            <mxPoint x="390" y="303" as="sourcePoint" />
            <mxPoint x="210" y="183" as="targetPoint" />
          </mxGeometry>
        </mxCell>
        <mxCell id="OlbgllyM8HP3dYGSSMSe-41" value="" style="endArrow=classic;html=1;rounded=0;exitX=0;exitY=0.5;exitDx=0;exitDy=0;" edge="1" parent="1">
          <mxGeometry width="50" height="50" relative="1" as="geometry">
            <mxPoint x="600" y="616" as="sourcePoint" />
            <mxPoint x="210" y="183" as="targetPoint" />
          </mxGeometry>
        </mxCell>
        <mxCell id="OlbgllyM8HP3dYGSSMSe-42" value="" style="rounded=0;whiteSpace=wrap;html=1;fillColor=none;strokeColor=#FF3333;dashed=1;strokeWidth=1;" vertex="1" parent="1">
          <mxGeometry x="610" y="178" width="100" height="10" as="geometry" />
        </mxCell>
        <mxCell id="OlbgllyM8HP3dYGSSMSe-43" value="" style="rounded=0;whiteSpace=wrap;html=1;fillColor=none;strokeColor=#FF3333;dashed=1;strokeWidth=1;" vertex="1" parent="1">
          <mxGeometry x="610" y="480" width="100" height="13" as="geometry" />
        </mxCell>
        <mxCell id="OlbgllyM8HP3dYGSSMSe-47" value="" style="endArrow=classic;html=1;rounded=0;exitX=0;exitY=0.5;exitDx=0;exitDy=0;entryX=1;entryY=0;entryDx=0;entryDy=0;strokeColor=#FF3333;" edge="1" parent="1" source="OlbgllyM8HP3dYGSSMSe-42" target="OlbgllyM8HP3dYGSSMSe-38">
          <mxGeometry width="50" height="50" relative="1" as="geometry">
            <mxPoint x="615" y="193" as="sourcePoint" />
            <mxPoint x="225" y="63" as="targetPoint" />
          </mxGeometry>
        </mxCell>
        <mxCell id="OlbgllyM8HP3dYGSSMSe-48" value="" style="endArrow=classic;html=1;rounded=0;exitX=0;exitY=0.231;exitDx=0;exitDy=0;entryX=1;entryY=0;entryDx=0;entryDy=0;strokeColor=#FF3333;exitPerimeter=0;" edge="1" parent="1" source="OlbgllyM8HP3dYGSSMSe-43" target="OlbgllyM8HP3dYGSSMSe-38">
          <mxGeometry width="50" height="50" relative="1" as="geometry">
            <mxPoint x="610" y="493" as="sourcePoint" />
            <mxPoint x="195" y="573" as="targetPoint" />
          </mxGeometry>
        </mxCell>
        <mxCell id="OlbgllyM8HP3dYGSSMSe-49" value="线程A" style="rounded=0;whiteSpace=wrap;html=1;" vertex="1" parent="1">
          <mxGeometry x="80" y="396" width="120" height="127" as="geometry" />
        </mxCell>
        <mxCell id="OlbgllyM8HP3dYGSSMSe-50" value="线程B" style="rounded=0;whiteSpace=wrap;html=1;" vertex="1" parent="1">
          <mxGeometry x="80" y="523" width="120" height="127" as="geometry" />
        </mxCell>
        <mxCell id="OlbgllyM8HP3dYGSSMSe-56" value="" style="rounded=0;whiteSpace=wrap;html=1;fillColor=none;" vertex="1" parent="1">
          <mxGeometry x="610" y="203" width="100" height="60" as="geometry" />
        </mxCell>
        <mxCell id="OlbgllyM8HP3dYGSSMSe-57" value="" style="rounded=0;whiteSpace=wrap;html=1;fillColor=none;" vertex="1" parent="1">
          <mxGeometry x="610" y="506" width="100" height="60" as="geometry" />
        </mxCell>
        <mxCell id="OlbgllyM8HP3dYGSSMSe-59" value="" style="endArrow=classic;html=1;rounded=0;entryX=1;entryY=0.5;entryDx=0;entryDy=0;exitX=0;exitY=0.5;exitDx=0;exitDy=0;" edge="1" parent="1" source="OlbgllyM8HP3dYGSSMSe-56" target="OlbgllyM8HP3dYGSSMSe-49">
          <mxGeometry width="50" height="50" relative="1" as="geometry">
            <mxPoint x="550" y="343" as="sourcePoint" />
            <mxPoint x="600" y="293" as="targetPoint" />
          </mxGeometry>
        </mxCell>
        <mxCell id="OlbgllyM8HP3dYGSSMSe-60" value="" style="endArrow=classic;html=1;rounded=0;entryX=1;entryY=0.5;entryDx=0;entryDy=0;exitX=0;exitY=0.5;exitDx=0;exitDy=0;" edge="1" parent="1" source="OlbgllyM8HP3dYGSSMSe-57">
          <mxGeometry width="50" height="50" relative="1" as="geometry">
            <mxPoint x="610" y="363" as="sourcePoint" />
            <mxPoint x="200" y="590" as="targetPoint" />
          </mxGeometry>
        </mxCell>
        <mxCell id="OlbgllyM8HP3dYGSSMSe-63" value="..." style="rounded=0;whiteSpace=wrap;html=1;" vertex="1" parent="1">
          <mxGeometry x="80" y="650" width="120" height="127" as="geometry" />
        </mxCell>
        <mxCell id="OlbgllyM8HP3dYGSSMSe-64" value="swap磁盘扩展：会将一些不常用的虚拟页转移到swap中，释放物理内存" style="rounded=0;whiteSpace=wrap;html=1;strokeWidth=4;" vertex="1" parent="1">
          <mxGeometry x="80" y="777" width="120" height="190" as="geometry" />
        </mxCell>
        <mxCell id="OlbgllyM8HP3dYGSSMSe-68" style="edgeStyle=orthogonalEdgeStyle;rounded=0;orthogonalLoop=1;jettySize=auto;html=1;entryX=1;entryY=0.5;entryDx=0;entryDy=0;" edge="1" parent="1" source="OlbgllyM8HP3dYGSSMSe-65" target="OlbgllyM8HP3dYGSSMSe-66">
          <mxGeometry relative="1" as="geometry" />
        </mxCell>
        <mxCell id="OlbgllyM8HP3dYGSSMSe-65" value="页" style="rounded=0;whiteSpace=wrap;html=1;" vertex="1" parent="1">
          <mxGeometry x="630" y="30" width="120" height="60" as="geometry" />
        </mxCell>
        <mxCell id="OlbgllyM8HP3dYGSSMSe-66" value="页框" style="rounded=0;whiteSpace=wrap;html=1;" vertex="1" parent="1">
          <mxGeometry x="80" y="30" width="120" height="60" as="geometry" />
        </mxCell>
        <mxCell id="OlbgllyM8HP3dYGSSMSe-67" value="页表：映射" style="rounded=1;whiteSpace=wrap;html=1;" vertex="1" parent="1">
          <mxGeometry x="354" y="30" width="120" height="60" as="geometry" />
        </mxCell>
      </root>
    </mxGraphModel>
  </diagram>
</mxfile>
